<svg id="Warstwa_2" data-name="Warstwa 2" xmlns="http://www.w3.org/2000/svg" viewBox="0 0 35.79 23.86"><defs><style>.cls-1{fill:#1d1d1b;}</style></defs><path class="cls-1" d="M17.91,6h0a5.84,5.84,0,0,0-1.57.23A2.9,2.9,0,0,1,16.9,8a3,3,0,0,1-3,3,3,3,0,0,1-1.77-.57,6.18,6.18,0,0,0-.2,1.56A5.95,5.95,0,1,0,17.91,6Z"/><path class="cls-1" d="M17.89,0A20,20,0,0,0,.21,11a2.08,2.08,0,0,0,0,1.82,20,20,0,0,0,17.68,11,19.92,19.92,0,0,0,17.68-11,2,2,0,0,0,.22-.91,2,2,0,0,0-.22-.91A19.92,19.92,0,0,0,17.89,0Zm9,11.94a8.94,8.94,0,0,1-8.94,8.94h0a9,9,0,1,1,9-8.95Z"/></svg>